<svg xmlns="http://www.w3.org/2000/svg" viewBox="0 0 1600 250" fill="none"><g stroke="#c59b62" stroke-width="1.4" opacity=".45"><path d="M0 180C150 128 250 142 365 162c131 23 213 26 343-15 124-40 201-54 324-19 143 41 267 38 568-28"/><path d="M0 198c147-41 256-28 379-6 127 22 225 15 334-21 141-46 255-42 395-3 135 38 263 35 492-16"/><path d="M0 216c183-26 313-4 434 6 143 11 248-9 367-45 119-37 216-24 343 9 127 33 268 31 456-3"/><path d="M0 232c180-12 306 12 441 18 158 7 250-18 379-45 117-24 212-9 337 20 131 30 272 31 443 7"/></g></svg>